<?xml version="1.0" encoding="utf-8" ?>
<svg xmlns="http://www.w3.org/2000/svg" xmlns:xlink="http://www.w3.org/1999/xlink" width="512" height="512">
	<path fill="#F5247D" d="M435.381 192.68L324.656 109.805L324.654 64.4523C324.651 61.7388 324.324 58.4985 325.107 55.8877L325.233 55.5C327.067 49.7305 332.024 46.9786 337.869 46.6014L421.837 46.4937C429.992 46.5017 441.328 45.9982 442.878 57.3885C443.484 61.8455 443.063 66.8484 443.066 71.376L443.133 197.545C440.35 196.338 437.863 194.41 435.381 192.68Z"/>
	<path fill="#F5247D" d="M256.912 147.05C248.127 146.71 235.984 157.962 229.344 162.989L61.5204 287.853C54.8398 292.569 48.7752 297.141 39.9585 294.906L39.5 294.783C24.4409 290.851 19.0386 272.247 28.9049 260.587C32.0042 256.925 36.3422 254.154 40.1341 251.257L246.918 92.6302C249.312 90.9346 251.486 89.8523 254.431 89.596C259.15 89.2738 262.807 91.4317 266.516 94.1396L467.166 247.379C472.835 251.684 480.389 255.867 484.428 261.808C495.647 278.317 479.167 300.512 460.792 293.525C457.066 292.108 453.871 289.654 450.718 287.272L266.155 151.463C263.401 149.653 260.54 147.773 257.266 147.117L256.912 147.05Z"/>
	<path fill="#F5247D" d="M258.312 462.049L121.899 462.022C114.304 462.009 108.855 461.762 102.335 457.232C93.624 451.182 89.6799 441.444 89.6401 431.218L89.6478 340.769C89.6474 325.975 87.0798 305.723 96.4645 293.067C100.435 287.713 106.458 283.612 111.699 279.564L221.74 198.174C229.733 192.336 244.393 178.995 254.238 177.582C262.334 176.183 270.527 184.2 276.428 188.58L393.734 274.58C412.83 288.976 421.961 293.841 421.998 318.727L421.991 428.552C421.988 431.451 422.062 434.395 421.65 437.273C419.976 448.954 410.346 460.703 398.092 461.848L397.625 461.886C392.292 462.375 386.729 462.056 381.369 462.054L258.312 462.049ZM254.436 253.347C249.361 254.081 245.655 257.698 241.735 260.703L165.845 314.8C159.42 319.116 151.04 323.023 146.329 329.375L145.141 331.144C144.318 332.337 144.235 334.272 144.157 335.696L144.073 393.016C144.074 395.667 143.806 398.681 144.336 401.284C146.572 412.265 159.231 410.845 167.193 410.849L258.24 410.858L356.22 410.763C361.996 410.434 367.087 404.807 367.366 399.161C367.533 395.785 367.308 392.33 367.294 388.946L367.457 334.875C367.18 327.165 356.758 321.964 351.146 318.172L273.164 263.09C267.111 258.637 262.31 253.535 254.436 253.347Z"/>
</svg>
